<svg
  xmlns="http://www.w3.org/2000/svg"
  width="21.143"
  height="17.209"
  viewBox="92.626 457 21.143 17.209"
><g data-name="Group 310"><path
      d="M113.769 471.382v.86c0 1.087-.88 1.967-1.967 1.967h-17.21a1.967 1.967 0 0 1-1.966-1.967v-.86c0-.068.055-.123.123-.123h7.867c.068 0 .123.055.123.123v.369c0 .543.44.983.983.983h2.95c.543 0 .984-.44.984-.983v-.369c0-.068.055-.123.123-.123h7.867c.068 0 .123.055.123.123Z"
      fill-rule="evenodd"
      data-name="Path 264"
    /><path
      d="M94.224 470.276h17.947a.123.123 0 0 0 .123-.123v-11.678c0-.815-.66-1.475-1.476-1.475H95.576c-.815 0-1.475.66-1.475 1.475v11.678c0 .068.055.123.123.123Zm1.844-11.186c0-.068.055-.123.123-.123h14.013c.068 0 .123.055.123.123v9.096a.123.123 0 0 1-.123.123H96.191a.123.123 0 0 1-.123-.123v-9.096Z"
      fill-rule="evenodd"
      data-name="Path 265"
    /></g></svg>
