<svg
  xmlns="http://www.w3.org/2000/svg"
  width="20.784"
  height="20.861"
  viewBox="164.66 288.07 20.784 20.861"
><path
    d="M170.044 300.852c.833-1.04 1.665-1.872 2.498-2.497 1.56-1.352 2.913-1.873 2.913-1.873s-.728 1.145-1.873 2.81c-.208.416-.52.832-.832 1.352-.313.416-.52.937-.833 1.457-.312.52-.52 1.04-.832 1.56-.208.521-.624 1.146-.832 1.666-.209.52-.52 1.144-.729 1.665-.104.208-.208.52-.312.728 3.434 1.977 8.012 1.56 10.822-1.457 5.202-5.619.624-8.012 5.41-17.897 0 0-10.613-2.185-18.209 5.307-3.433 3.434-3.433 8.949 0 12.486.208-.624.416-1.248.729-1.873.52-1.248 1.248-2.497 2.08-3.433Z"
    fill="#7dbaaf"
    fill-rule="evenodd"
    data-name="noun-leaf-394975"
  /></svg>
