<svg
  xmlns="http://www.w3.org/2000/svg"
  width="27.06"
  height="17.209"
  viewBox="152.626 457 27.06 17.209"
><g data-name="Group 311"><path
      d="M167.936 457h-14.408a.902.902 0 0 0-.902.902v13.16c0 .499.404.903.902.903h1.343a2.747 2.747 0 0 1 2.743-2.744 2.747 2.747 0 0 1 2.743 2.744h8.48v-14.063a.902.902 0 0 0-.901-.902Z"
      fill-rule="evenodd"
      data-name="Path 266"
    /><path
      d="m179.499 465.495-4.613-5.766a.708.708 0 0 0-.488-.235h-4.688v12.47h.998a2.747 2.747 0 0 1 2.743-2.743 2.747 2.747 0 0 1 2.743 2.744h2.59a.902.902 0 0 0 .902-.902v-5.033a.995.995 0 0 0-.187-.535Zm-8.167-.264v-4.49h2.494l3.591 4.49h-6.085Z"
      fill-rule="evenodd"
      data-name="Path 267"
    /><path
      d="M157.614 469.72a2.247 2.247 0 0 0-2.245 2.245 2.248 2.248 0 0 0 2.245 2.244 2.247 2.247 0 0 0 2.245-2.244 2.247 2.247 0 0 0-2.245-2.245Z"
      fill-rule="evenodd"
      data-name="Path 268"
    /><path
      d="M173.452 469.72a2.247 2.247 0 0 0-2.245 2.245 2.248 2.248 0 0 0 2.245 2.244 2.247 2.247 0 0 0 2.244-2.244 2.247 2.247 0 0 0-2.244-2.245Z"
      fill-rule="evenodd"
      data-name="Path 269"
    /></g></svg>
